<?xml version="1.0" encoding="UTF-8" standalone="no"?>
<!DOCTYPE svg PUBLIC "-//W3C//DTD SVG 1.1//EN" "http://www.w3.org/Graphics/SVG/1.1/DTD/svg11.dtd">
<svg width="100%" height="100%" viewBox="0 0 718 150" version="1.1" xmlns="http://www.w3.org/2000/svg" xmlns:xlink="http://www.w3.org/1999/xlink" xml:space="preserve" xmlns:serif="http://www.serif.com/" style="fill-rule:evenodd;clip-rule:evenodd;stroke-linejoin:round;stroke-miterlimit:2;">
    <g id="_2200348543824" transform="matrix(1,0,0,1,11.14,8.75478)">
        <g>
            <path d="M178.868,105.465L183.714,102.894C183.683,98.968 183.368,89.325 184.186,85.931C184.821,83.299 186.071,82.637 186.514,79.909C186.962,77.144 186.397,74.222 185.917,71.489C179.334,69.165 171.426,70.741 167.857,65.16C167.372,60.886 169.156,59.768 172.189,58.693C170.862,60.204 170.513,60.219 169.888,62.946C175.591,71.442 208.848,72.685 216.706,64.374C198.304,66.264 186.78,63.818 173.542,49.937C171.758,48.066 170.864,46.459 169.056,44.83C160.158,36.812 152.296,26.929 136.169,27.837C127.097,28.347 112.934,35.187 108.366,40.079L108.27,83.305C109.618,82.114 111.156,80.55 112.578,79.207C110.372,86.451 105.98,83.896 109.28,104.424C109.633,106.624 110.114,109.467 110.102,111.672C110.076,116.37 108.935,115.399 108.339,118.487C106.911,125.897 111.504,120.263 109.192,129.788L126.657,129.884C126.187,124.407 122.523,121.601 118.311,120.074C117.635,113.508 122.499,100.986 129.89,96.558C135.558,93.162 141.561,91.739 146.146,86.169L148.587,81.881C149.381,80.506 148.989,81.109 149.589,80.341C148.881,94.17 140.331,94.423 134.556,96.582C130.391,98.139 130.721,99.101 127.736,100.796C128.826,102.629 128.514,102.551 132.048,104.07C139.359,107.213 156.801,118.566 161.119,123.436C157.454,132.024 162.655,129.686 177.647,129.909C176.783,120.841 173.141,129.487 160.632,111.548C156.409,105.49 150.08,93.445 154.133,83.84C155.873,86.612 156.372,88.464 159.147,90.181C163.441,92.837 163.113,90.112 165.916,95.16C168.568,99.936 172.888,105.32 178.869,105.465L178.868,105.465Z" style="fill:rgb(5,41,74);"/>
            <path d="M81.892,23.85L81.889,121.555C84.931,123.911 91.514,127.172 99.574,126.576L99.487,0L84.871,16.795C82.916,18.954 81.892,19.791 81.892,23.85L81.892,23.85Z" style="fill:rgb(31,133,224);"/>
            <path d="M52.623,37.128L52.645,118.199C56.279,121.578 65.661,123.079 70.081,122.98L70.256,14.301C67.918,15.37 59.008,26.831 56.212,30.169C54.385,32.348 52.623,33.386 52.623,37.128L52.623,37.128Z" style="fill:rgb(114,185,249);"/>
            <path d="M23.367,57.783L23.183,95.902C17.673,90.786 20.3,89.618 17.619,84.197C16.009,96.581 17.673,98.231 23.132,105.925C26.118,110.134 36.107,116.13 41.359,116.605C39.923,99.345 41.258,47.238 40.909,28.213C38.667,29.431 32.193,38.058 29.9,40.76C28.608,42.283 28.253,42.629 27.193,43.956C26.407,44.94 25.087,46.215 24.466,47.107C22.713,49.624 23.368,53.934 23.367,57.783L23.367,57.783Z" style="fill:rgb(162,210,253);"/>
            <path d="M0.247,94.036C-0.647,102.014 0.867,110.533 5.13,115.891C20.955,133.056 50.002,133.164 72.766,132.137C80.299,131.797 92.568,129.873 98.146,129.856C85.093,128.495 73.356,128.544 60.26,126.369C40.831,123.141 12.178,114.735 13.389,90.337C14.089,76.234 20.31,78.049 17.779,53.721C10.151,65.511 2.858,77.52 0.247,94.036Z" style="fill:rgb(5,41,74);"/>
            <path d="M178.483,75.275C177.356,75.382 177.908,82.323 180.346,81.923C181.567,81.723 180.368,75.094 178.483,75.275Z" style="fill:rgb(254,254,254);"/>
        </g>
        <g transform="matrix(1,0,0,1,222.589,127.905)">
            <g>
                <g transform="matrix(100,0,0,100,0,0)">
                    <path d="M0.034,-0.525L0.034,-0.632C0.034,-0.67 0.057,-0.692 0.105,-0.7C0.144,-0.7 0.167,-0.675 0.173,-0.625L0.173,-0.611C0.173,-0.608 0.173,-0.605 0.173,-0.603L0.173,-0.069C0.173,-0.031 0.149,-0.008 0.102,-0.001C0.062,-0.001 0.039,-0.026 0.033,-0.075L0.034,-0.525Z" style="fill:rgb(34,118,218);fill-rule:nonzero;"/>
                </g>
                <g transform="matrix(100,0,0,100,19.9219,0)">
                    <path d="M0.269,-0.448L0.407,-0.449C0.451,-0.451 0.475,-0.47 0.479,-0.506C0.475,-0.54 0.453,-0.557 0.412,-0.557L0.157,-0.557L0.157,-0.448L0.158,-0.448L0.158,-0.063C0.158,-0.021 0.135,0 0.088,-0C0.045,-0.01 0.023,-0.031 0.023,-0.065L0.024,-0.221L0.023,-0.221L0.023,-0.633C0.033,-0.675 0.055,-0.696 0.092,-0.696C0.116,-0.698 0.133,-0.698 0.145,-0.698L0.448,-0.697C0.477,-0.697 0.507,-0.688 0.537,-0.67C0.591,-0.632 0.618,-0.572 0.618,-0.491C0.614,-0.436 0.591,-0.391 0.546,-0.357C0.502,-0.322 0.409,-0.307 0.269,-0.31C0.249,-0.31 0.233,-0.316 0.219,-0.33C0.206,-0.343 0.199,-0.36 0.199,-0.379C0.199,-0.398 0.206,-0.414 0.219,-0.428C0.233,-0.441 0.249,-0.448 0.269,-0.448Z" style="fill:rgb(34,118,218);fill-rule:nonzero;"/>
                </g>
                <g transform="matrix(100,0,0,100,84.9609,0)">
                    <path d="M0.373,-0.701C0.466,-0.701 0.548,-0.667 0.619,-0.6C0.688,-0.528 0.723,-0.445 0.723,-0.35C0.723,-0.257 0.689,-0.175 0.621,-0.104C0.55,-0.035 0.466,-0 0.371,-0C0.279,-0 0.197,-0.034 0.125,-0.102C0.056,-0.173 0.021,-0.257 0.021,-0.352C0.021,-0.388 0.027,-0.423 0.038,-0.455C0.054,-0.48 0.074,-0.492 0.096,-0.492L0.102,-0.492C0.135,-0.492 0.157,-0.473 0.169,-0.435C0.17,-0.428 0.17,-0.423 0.17,-0.419C0.165,-0.389 0.162,-0.367 0.162,-0.352L0.162,-0.349C0.162,-0.279 0.193,-0.221 0.255,-0.174C0.291,-0.151 0.331,-0.139 0.373,-0.139C0.441,-0.139 0.498,-0.169 0.544,-0.229C0.569,-0.267 0.582,-0.306 0.582,-0.348L0.582,-0.354C0.582,-0.416 0.557,-0.469 0.506,-0.514C0.467,-0.546 0.421,-0.563 0.366,-0.563L0.094,-0.563L0.094,-0.563C0.129,-0.607 0.165,-0.638 0.202,-0.657C0.254,-0.686 0.312,-0.701 0.373,-0.701Z" style="fill:rgb(34,118,218);fill-rule:nonzero;"/>
                </g>
                <g transform="matrix(100,0,0,100,168.541,0)">
                    <path d="M0.269,-0.448L0.407,-0.449C0.451,-0.451 0.475,-0.47 0.479,-0.506C0.475,-0.54 0.453,-0.557 0.412,-0.557L0.157,-0.557L0.157,-0.448L0.158,-0.448L0.158,-0.063C0.158,-0.021 0.135,0 0.088,-0C0.045,-0.01 0.023,-0.031 0.023,-0.065L0.024,-0.221L0.023,-0.221L0.023,-0.633C0.033,-0.675 0.055,-0.696 0.092,-0.696C0.116,-0.698 0.133,-0.698 0.145,-0.698L0.448,-0.697C0.477,-0.697 0.507,-0.688 0.537,-0.67C0.591,-0.632 0.618,-0.572 0.618,-0.491C0.614,-0.436 0.591,-0.391 0.546,-0.357C0.502,-0.322 0.409,-0.307 0.269,-0.31C0.249,-0.31 0.233,-0.316 0.219,-0.33C0.206,-0.343 0.199,-0.36 0.199,-0.379C0.199,-0.398 0.206,-0.414 0.219,-0.428C0.233,-0.441 0.249,-0.448 0.269,-0.448Z" style="fill:rgb(64,86,113);fill-rule:nonzero;"/>
                </g>
                <g transform="matrix(100,0,0,100,233.58,0)">
                    <path d="M0.104,-0.7C0.148,-0.7 0.17,-0.675 0.17,-0.625L0.17,-0.296C0.17,-0.232 0.191,-0.187 0.233,-0.162C0.238,-0.154 0.265,-0.147 0.315,-0.141L0.318,-0.141C0.366,-0.141 0.401,-0.157 0.423,-0.187C0.445,-0.216 0.455,-0.249 0.452,-0.285L0.452,-0.625C0.452,-0.675 0.476,-0.7 0.526,-0.7C0.57,-0.694 0.592,-0.672 0.592,-0.633L0.592,-0.3C0.592,-0.173 0.541,-0.083 0.437,-0.03C0.391,-0.01 0.353,-0 0.322,-0L0.318,-0C0.199,-0 0.112,-0.056 0.056,-0.167C0.038,-0.195 0.03,-0.247 0.03,-0.322L0.03,-0.615C0.03,-0.671 0.055,-0.7 0.104,-0.7Z" style="fill:rgb(64,86,113);fill-rule:nonzero;"/>
                </g>
                <g transform="matrix(100,0,0,100,296.129,0)">
                    <path d="M0.103,-0.7C0.142,-0.7 0.165,-0.675 0.17,-0.625L0.17,-0.143L0.461,-0.143C0.507,-0.143 0.536,-0.125 0.548,-0.09L0.551,-0.071C0.551,-0.029 0.526,-0.006 0.474,-0L0.099,-0C0.054,-0.009 0.031,-0.031 0.031,-0.065L0.031,-0.632C0.031,-0.67 0.055,-0.692 0.103,-0.7Z" style="fill:rgb(64,86,113);fill-rule:nonzero;"/>
                </g>
                <g transform="matrix(100,0,0,100,353.307,0)">
                    <path d="M0.197,-0.697L0.55,-0.697C0.578,-0.697 0.599,-0.681 0.614,-0.649C0.616,-0.641 0.617,-0.635 0.617,-0.631L0.617,-0.623C0.617,-0.6 0.605,-0.582 0.581,-0.566C0.57,-0.56 0.558,-0.557 0.546,-0.557L0.199,-0.557C0.181,-0.557 0.17,-0.546 0.167,-0.522C0.167,-0.503 0.181,-0.49 0.211,-0.482L0.515,-0.358C0.528,-0.352 0.547,-0.338 0.571,-0.314C0.602,-0.276 0.618,-0.234 0.618,-0.188C0.618,-0.128 0.591,-0.076 0.538,-0.035C0.503,-0.012 0.468,-0 0.431,-0L0.096,-0C0.066,-0 0.044,-0.016 0.031,-0.047C0.028,-0.055 0.027,-0.062 0.027,-0.07C0.027,-0.103 0.045,-0.126 0.083,-0.139C0.09,-0.139 0.096,-0.14 0.099,-0.14L0.425,-0.14C0.45,-0.14 0.467,-0.152 0.476,-0.175C0.477,-0.181 0.478,-0.186 0.478,-0.189L0.478,-0.191C0.478,-0.215 0.463,-0.233 0.434,-0.243C0.238,-0.32 0.133,-0.361 0.12,-0.367C0.058,-0.405 0.027,-0.457 0.027,-0.522C0.027,-0.582 0.054,-0.632 0.108,-0.67C0.138,-0.688 0.168,-0.697 0.197,-0.697Z" style="fill:rgb(64,86,113);fill-rule:nonzero;"/>
                </g>
                <g transform="matrix(100,0,0,100,418.346,0)">
                    <path d="M0.091,-0.7L0.482,-0.7C0.521,-0.7 0.542,-0.675 0.548,-0.625C0.548,-0.59 0.525,-0.569 0.479,-0.56L0.094,-0.56C0.053,-0.56 0.031,-0.586 0.025,-0.638C0.025,-0.669 0.047,-0.689 0.091,-0.7ZM0.094,-0.491L0.479,-0.491C0.518,-0.491 0.541,-0.467 0.548,-0.42C0.548,-0.385 0.528,-0.363 0.489,-0.352L0.168,-0.352L0.168,-0.14L0.482,-0.14C0.518,-0.14 0.539,-0.117 0.548,-0.071L0.548,-0.068C0.539,-0.023 0.517,-0 0.482,-0L0.1,-0C0.05,-0 0.025,-0.026 0.025,-0.078L0.025,-0.414C0.031,-0.465 0.053,-0.491 0.094,-0.491Z" style="fill:rgb(64,86,113);fill-rule:nonzero;"/>
                </g>
            </g>
        </g>
    </g>
</svg>
