<?xml version="1.0" encoding="UTF-8" standalone="no"?>
<!DOCTYPE svg PUBLIC "-//W3C//DTD SVG 1.1//EN" "http://www.w3.org/Graphics/SVG/1.1/DTD/svg11.dtd">
<svg width="100%" height="100%" viewBox="0 0 338 221" version="1.1" xmlns="http://www.w3.org/2000/svg" xmlns:xlink="http://www.w3.org/1999/xlink" xml:space="preserve" xmlns:serif="http://www.serif.com/" style="fill-rule:evenodd;clip-rule:evenodd;stroke-linejoin:round;stroke-miterlimit:2;">
    <g transform="matrix(1.48779,0,0,1.48779,7.79379,11.9412)">
        <path d="M178.868,105.465L183.714,102.894C183.683,98.968 183.368,89.325 184.186,85.931C184.821,83.299 186.071,82.637 186.514,79.909C186.962,77.144 186.397,74.222 185.917,71.489C179.334,69.165 171.426,70.741 167.857,65.16C167.372,60.886 169.156,59.768 172.189,58.693C170.862,60.204 170.513,60.219 169.888,62.946C175.591,71.442 208.848,72.685 216.706,64.374C198.304,66.264 186.78,63.818 173.542,49.937C171.758,48.066 170.864,46.459 169.056,44.83C160.158,36.812 152.296,26.929 136.169,27.837C127.097,28.347 112.934,35.187 108.366,40.079L108.27,83.305C109.618,82.114 111.156,80.55 112.578,79.207C110.372,86.451 105.98,83.896 109.28,104.424C109.633,106.624 110.114,109.467 110.102,111.672C110.076,116.37 108.935,115.399 108.339,118.487C106.911,125.897 111.504,120.263 109.192,129.788L126.657,129.884C126.187,124.407 122.523,121.601 118.311,120.074C117.635,113.508 122.499,100.986 129.89,96.558C135.558,93.162 141.561,91.739 146.146,86.169L148.587,81.881C149.381,80.506 148.989,81.109 149.589,80.341C148.881,94.17 140.331,94.423 134.556,96.582C130.391,98.139 130.721,99.101 127.736,100.796C128.826,102.629 128.514,102.551 132.048,104.07C139.359,107.213 156.801,118.566 161.119,123.436C157.454,132.024 162.655,129.686 177.647,129.909C176.783,120.841 173.141,129.487 160.632,111.548C156.409,105.49 150.08,93.445 154.133,83.84C155.873,86.612 156.372,88.464 159.147,90.181C163.441,92.837 163.113,90.112 165.916,95.16C168.568,99.936 172.888,105.32 178.869,105.465L178.868,105.465Z" style="fill:rgb(5,41,74);"/>
        <path d="M81.892,23.85L81.889,121.555C84.931,123.911 91.514,127.172 99.574,126.576L99.487,0L84.871,16.795C82.916,18.954 81.892,19.791 81.892,23.85L81.892,23.85Z" style="fill:rgb(31,133,224);"/>
        <path d="M52.623,37.128L52.645,118.199C56.279,121.578 65.661,123.079 70.081,122.98L70.256,14.301C67.918,15.37 59.008,26.831 56.212,30.169C54.385,32.348 52.623,33.386 52.623,37.128L52.623,37.128Z" style="fill:rgb(114,185,249);"/>
        <path d="M23.367,57.783L23.183,95.902C17.673,90.786 20.3,89.618 17.619,84.197C16.009,96.581 17.673,98.231 23.132,105.925C26.118,110.134 36.107,116.13 41.359,116.605C39.923,99.345 41.258,47.238 40.909,28.213C38.667,29.431 32.193,38.058 29.9,40.76C28.608,42.283 28.253,42.629 27.193,43.956C26.407,44.94 25.087,46.215 24.466,47.107C22.713,49.624 23.368,53.934 23.367,57.783L23.367,57.783Z" style="fill:rgb(162,210,253);"/>
        <path d="M0.247,94.036C-0.647,102.014 0.867,110.533 5.13,115.891C20.955,133.056 50.002,133.164 72.766,132.137C80.299,131.797 92.568,129.873 98.146,129.856C85.093,128.495 73.356,128.544 60.26,126.369C40.831,123.141 12.178,114.735 13.389,90.337C14.089,76.234 20.31,78.049 17.779,53.721C10.151,65.511 2.858,77.52 0.247,94.036Z" style="fill:rgb(5,41,74);"/>
        <path d="M178.483,75.275C177.356,75.382 177.908,82.323 180.346,81.923C181.567,81.723 180.368,75.094 178.483,75.275Z" style="fill:rgb(254,254,254);"/>
    </g>
</svg>
